<svg width="14" height="14" viewBox="0 0 14 14" fill="none" xmlns="http://www.w3.org/2000/svg">
<g id="vuesax/bold/gas-station">
<g id="vuesax/bold/gas-station_2">
<g id="gas-station">
<path id="Vector" d="M13.032 5.44283L11.8653 4.85949C11.6495 4.75449 11.3812 4.83616 11.2762 5.05199C11.1653 5.27366 11.2528 5.53616 11.4687 5.64116L12.3962 6.10199V8.89616L10.2087 8.90199V2.91699C10.2087 1.75033 9.42699 1.16699 8.45866 1.16699H3.79199C2.82366 1.16699 2.04199 1.75033 2.04199 2.91699V12.3962H1.16699C0.927826 12.3962 0.729492 12.5945 0.729492 12.8337C0.729492 13.0728 0.927826 13.2712 1.16699 13.2712H11.0837C11.3228 13.2712 11.5212 13.0728 11.5212 12.8337C11.5212 12.5945 11.3228 12.3962 11.0837 12.3962H10.2087V9.77699L12.8337 9.77116C13.0787 9.77116 13.2712 9.57283 13.2712 9.33366V5.83366C13.2712 5.67033 13.1778 5.51866 13.032 5.44283ZM3.50033 4.01949C3.50033 3.20866 3.99616 2.91699 4.60283 2.91699H7.65366C8.25449 2.91699 8.75033 3.20866 8.75033 4.01949V4.73699C8.75033 5.54199 8.25449 5.83366 7.64783 5.83366H4.60283C3.99616 5.83366 3.50033 5.54199 3.50033 4.73116V4.01949ZM3.79199 7.14616H5.54199C5.78116 7.14616 5.97949 7.34449 5.97949 7.58366C5.97949 7.82283 5.78116 8.02116 5.54199 8.02116H3.79199C3.55283 8.02116 3.35449 7.82283 3.35449 7.58366C3.35449 7.34449 3.55283 7.14616 3.79199 7.14616Z" fill="#90A3BF"/>
</g>
</g>
</g>
</svg>
