<svg width="14" height="14" viewBox="0 0 14 14" fill="none" xmlns="http://www.w3.org/2000/svg">
<g id="vuesax/bold/profile-2user">
<g id="vuesax/bold/profile-2user_2">
<g id="profile-2user">
<path id="Vector" d="M5.25033 1.16699C3.72199 1.16699 2.47949 2.40949 2.47949 3.93783C2.47949 5.43699 3.65199 6.65033 5.18033 6.70283C5.22699 6.69699 5.27366 6.69699 5.30866 6.70283C5.32033 6.70283 5.32616 6.70283 5.33782 6.70283C5.34366 6.70283 5.34366 6.70283 5.34949 6.70283C6.84282 6.65033 8.01532 5.43699 8.02116 3.93783C8.02116 2.40949 6.77866 1.16699 5.25033 1.16699Z" fill="#90A3BF"/>
<path id="Vector_2" d="M8.21356 8.25418C6.58606 7.16918 3.93189 7.16918 2.29272 8.25418C1.55189 8.75001 1.14355 9.42085 1.14355 10.1383C1.14355 10.8558 1.55189 11.5208 2.28689 12.0108C3.10355 12.5592 4.17689 12.8333 5.25022 12.8333C6.32356 12.8333 7.39689 12.5592 8.21356 12.0108C8.94856 11.515 9.35689 10.85 9.35689 10.1267C9.35106 9.40918 8.94856 8.74418 8.21356 8.25418Z" fill="#90A3BF"/>
<path id="Vector_3" d="M11.6605 4.28156C11.7538 5.41323 10.9488 6.4049 9.83464 6.53906C9.8288 6.53906 9.8288 6.53906 9.82297 6.53906H9.80547C9.77047 6.53906 9.73547 6.53906 9.7063 6.55073C9.14047 6.57989 8.6213 6.39906 8.23047 6.06656C8.8313 5.5299 9.17547 4.7249 9.10547 3.8499C9.06464 3.3774 8.9013 2.94573 8.6563 2.57823C8.87797 2.4674 9.13464 2.3974 9.39714 2.37406C10.5405 2.2749 11.5613 3.12656 11.6605 4.28156Z" fill="#90A3BF"/>
<path id="Vector_4" d="M12.8278 9.67708C12.7811 10.2429 12.4195 10.7329 11.8128 11.0654C11.2295 11.3862 10.4945 11.5379 9.7653 11.5204C10.1853 11.1412 10.4303 10.6687 10.477 10.1671C10.5353 9.44375 10.1911 8.74958 9.5028 8.19541C9.11197 7.88625 8.65697 7.64125 8.16113 7.46041C9.4503 7.08708 11.072 7.33791 12.0695 8.14291C12.6061 8.57458 12.8803 9.11708 12.8278 9.67708Z" fill="#90A3BF"/>
</g>
</g>
</g>
</svg>
